<svg xmlns="http://www.w3.org/2000/svg" xmlns:xlink="http://www.w3.org/1999/xlink" width="376" zoomAndPan="magnify" viewBox="0 0 282 123.000003" height="164" preserveAspectRatio="xMidYMid meet" version="1.0"><defs><g/></defs><g fill="currentColor" fill-opacity="1"><g transform="translate(20.266276, 85.836956)"><g><path d="M 29.4375 -5 C 28.925781 -5 28.378906 -5.148438 27.796875 -5.453125 C 27.222656 -5.753906 26.613281 -6.085938 25.96875 -6.453125 L 3.40625 -19.71875 C 2.84375 -20.09375 2.421875 -20.566406 2.140625 -21.140625 C 1.867188 -21.722656 1.734375 -22.316406 1.734375 -22.921875 C 1.734375 -23.566406 1.867188 -24.175781 2.140625 -24.75 C 2.421875 -25.332031 2.84375 -25.785156 3.40625 -26.109375 L 25.96875 -39.09375 C 26.570312 -39.46875 27.140625 -39.757812 27.671875 -39.96875 C 28.203125 -40.175781 28.695312 -40.28125 29.15625 -40.28125 C 30.082031 -40.28125 30.953125 -39.828125 31.765625 -38.921875 C 32.578125 -38.015625 32.984375 -37.078125 32.984375 -36.109375 C 32.984375 -35.640625 32.851562 -35.1875 32.59375 -34.75 C 32.34375 -34.3125 31.960938 -33.929688 31.453125 -33.609375 L 7.359375 -19.65625 L 6.875 -26.59375 L 31.390625 -11.9375 C 31.941406 -11.613281 32.332031 -11.207031 32.5625 -10.71875 C 32.789062 -10.238281 32.90625 -9.742188 32.90625 -9.234375 C 32.90625 -8.117188 32.523438 -7.132812 31.765625 -6.28125 C 31.003906 -5.425781 30.226562 -5 29.4375 -5 Z M 29.4375 -5 "/></g></g></g><g fill="currentColor" fill-opacity="1"><g transform="translate(56.717918, 85.836956)"><g><path d="M 23.046875 -37.703125 L 8.0625 -2.4375 C 7.726562 -1.550781 7.226562 -0.863281 6.5625 -0.375 C 5.894531 0.101562 5.164062 0.34375 4.375 0.34375 C 3.125 0.34375 2.195312 0 1.59375 -0.6875 C 0.988281 -1.382812 0.6875 -2.242188 0.6875 -3.265625 C 0.6875 -3.679688 0.757812 -4.117188 0.90625 -4.578125 L 18.1875 -46.109375 C 18.5625 -47.035156 19.128906 -47.75 19.890625 -48.25 C 20.660156 -48.757812 21.484375 -48.972656 22.359375 -48.890625 C 23.191406 -48.890625 23.96875 -48.644531 24.6875 -48.15625 C 25.40625 -47.664062 25.925781 -46.984375 26.25 -46.109375 L 43.328125 -5.421875 C 43.554688 -4.816406 43.671875 -4.257812 43.671875 -3.75 C 43.671875 -2.5 43.265625 -1.503906 42.453125 -0.765625 C 41.648438 -0.0234375 40.757812 0.34375 39.78125 0.34375 C 38.945312 0.34375 38.195312 0.0859375 37.53125 -0.421875 C 36.863281 -0.929688 36.34375 -1.625 35.96875 -2.5 L 21.046875 -37.28125 Z M 10.203125 -10.90625 L 14.03125 -18.890625 L 32.78125 -18.890625 L 34.09375 -10.90625 Z M 10.203125 -10.90625 "/></g></g></g><g fill="currentColor" fill-opacity="1"><g transform="translate(101.089643, 85.836956)"><g/></g></g><g fill="currentColor" fill-opacity="1"><g transform="translate(120.53052, 85.836956)"><g/></g></g><g fill="currentColor" fill-opacity="1"><g transform="translate(134.261638, 53.103085)"><g><path d="M 8.5625 -14 L 2.984375 -0.90625 C 2.867188 -0.570312 2.6875 -0.316406 2.4375 -0.140625 C 2.1875 0.0351562 1.914062 0.125 1.625 0.125 C 1.15625 0.125 0.804688 0 0.578125 -0.25 C 0.359375 -0.507812 0.25 -0.832031 0.25 -1.21875 C 0.25 -1.363281 0.273438 -1.523438 0.328125 -1.703125 L 6.75 -17.125 C 6.882812 -17.46875 7.09375 -17.734375 7.375 -17.921875 C 7.664062 -18.109375 7.972656 -18.1875 8.296875 -18.15625 C 8.609375 -18.15625 8.894531 -18.0625 9.15625 -17.875 C 9.425781 -17.695312 9.625 -17.445312 9.75 -17.125 L 16.09375 -2.015625 C 16.175781 -1.785156 16.21875 -1.578125 16.21875 -1.390625 C 16.21875 -0.929688 16.066406 -0.5625 15.765625 -0.28125 C 15.460938 -0.0078125 15.128906 0.125 14.765625 0.125 C 14.460938 0.125 14.1875 0.03125 13.9375 -0.15625 C 13.6875 -0.34375 13.492188 -0.597656 13.359375 -0.921875 L 7.8125 -13.84375 Z M 3.796875 -4.046875 L 5.203125 -7.015625 L 12.171875 -7.015625 L 12.65625 -4.046875 Z M 3.796875 -4.046875 "/></g></g></g><g fill="currentColor" fill-opacity="1"><g transform="translate(150.736721, 53.103085)"><g><path d="M 9.046875 -14.046875 C 10.316406 -14.046875 11.28125 -13.78125 11.9375 -13.25 C 12.601562 -12.71875 13.0625 -12.007812 13.3125 -11.125 C 13.5625 -10.238281 13.6875 -9.253906 13.6875 -8.171875 L 13.6875 -1.578125 C 13.6875 -1.128906 13.539062 -0.753906 13.25 -0.453125 C 12.957031 -0.148438 12.585938 0 12.140625 0 C 11.691406 0 11.320312 -0.148438 11.03125 -0.453125 C 10.738281 -0.753906 10.59375 -1.128906 10.59375 -1.578125 L 10.59375 -8.171875 C 10.59375 -8.734375 10.519531 -9.242188 10.375 -9.703125 C 10.226562 -10.160156 9.960938 -10.523438 9.578125 -10.796875 C 9.203125 -11.078125 8.664062 -11.21875 7.96875 -11.21875 C 7.28125 -11.21875 6.695312 -11.078125 6.21875 -10.796875 C 5.75 -10.523438 5.390625 -10.160156 5.140625 -9.703125 C 4.890625 -9.242188 4.765625 -8.734375 4.765625 -8.171875 L 4.765625 -1.578125 C 4.765625 -1.128906 4.617188 -0.753906 4.328125 -0.453125 C 4.035156 -0.148438 3.664062 0 3.21875 0 C 2.769531 0 2.398438 -0.148438 2.109375 -0.453125 C 1.816406 -0.753906 1.671875 -1.128906 1.671875 -1.578125 L 1.671875 -12.21875 C 1.671875 -12.664062 1.816406 -13.039062 2.109375 -13.34375 C 2.398438 -13.644531 2.769531 -13.796875 3.21875 -13.796875 C 3.664062 -13.796875 4.035156 -13.644531 4.328125 -13.34375 C 4.617188 -13.039062 4.765625 -12.664062 4.765625 -12.21875 L 4.765625 -11.109375 L 4.375 -11.1875 C 4.53125 -11.476562 4.753906 -11.789062 5.046875 -12.125 C 5.335938 -12.457031 5.679688 -12.769531 6.078125 -13.0625 C 6.472656 -13.363281 6.921875 -13.601562 7.421875 -13.78125 C 7.921875 -13.957031 8.460938 -14.046875 9.046875 -14.046875 Z M 9.046875 -14.046875 "/></g></g></g><g fill="currentColor" fill-opacity="1"><g transform="translate(166.103154, 53.103085)"><g><path d="M 7.40625 -14.046875 C 8.125 -14.046875 8.78125 -13.929688 9.375 -13.703125 C 9.976562 -13.484375 10.5 -13.203125 10.9375 -12.859375 C 11.375 -12.515625 11.71875 -12.164062 11.96875 -11.8125 C 12.21875 -11.46875 12.34375 -11.175781 12.34375 -10.9375 L 11.671875 -10.59375 L 11.671875 -12.484375 C 11.671875 -12.921875 11.816406 -13.289062 12.109375 -13.59375 C 12.410156 -13.894531 12.78125 -14.046875 13.21875 -14.046875 C 13.664062 -14.046875 14.035156 -13.898438 14.328125 -13.609375 C 14.617188 -13.316406 14.765625 -12.941406 14.765625 -12.484375 L 14.765625 -1 C 14.765625 0.488281 14.441406 1.679688 13.796875 2.578125 C 13.160156 3.484375 12.316406 4.140625 11.265625 4.546875 C 10.210938 4.953125 9.085938 5.15625 7.890625 5.15625 C 7.546875 5.15625 7.097656 5.109375 6.546875 5.015625 C 5.992188 4.929688 5.46875 4.828125 4.96875 4.703125 C 4.476562 4.585938 4.101562 4.476562 3.84375 4.375 C 3.320312 4.15625 2.960938 3.878906 2.765625 3.546875 C 2.566406 3.210938 2.53125 2.851562 2.65625 2.46875 C 2.8125 1.976562 3.0625 1.640625 3.40625 1.453125 C 3.75 1.273438 4.109375 1.253906 4.484375 1.390625 C 4.660156 1.441406 4.941406 1.546875 5.328125 1.703125 C 5.722656 1.859375 6.15625 2 6.625 2.125 C 7.101562 2.25 7.523438 2.3125 7.890625 2.3125 C 9.179688 2.3125 10.132812 2.050781 10.75 1.53125 C 11.363281 1.019531 11.671875 0.3125 11.671875 -0.59375 L 11.671875 -2.828125 L 11.984375 -2.609375 C 11.984375 -2.378906 11.867188 -2.101562 11.640625 -1.78125 C 11.410156 -1.46875 11.09375 -1.15625 10.6875 -0.84375 C 10.28125 -0.539062 9.800781 -0.28125 9.25 -0.0625 C 8.707031 0.144531 8.125 0.25 7.5 0.25 C 6.28125 0.25 5.179688 -0.0507812 4.203125 -0.65625 C 3.222656 -1.269531 2.445312 -2.113281 1.875 -3.1875 C 1.3125 -4.257812 1.03125 -5.492188 1.03125 -6.890625 C 1.03125 -8.296875 1.3125 -9.535156 1.875 -10.609375 C 2.445312 -11.679688 3.210938 -12.519531 4.171875 -13.125 C 5.140625 -13.738281 6.21875 -14.046875 7.40625 -14.046875 Z M 7.890625 -11.21875 C 7.117188 -11.21875 6.4375 -11.023438 5.84375 -10.640625 C 5.257812 -10.265625 4.804688 -9.75 4.484375 -9.09375 C 4.160156 -8.445312 4 -7.710938 4 -6.890625 C 4 -6.078125 4.160156 -5.34375 4.484375 -4.6875 C 4.804688 -4.039062 5.257812 -3.523438 5.84375 -3.140625 C 6.4375 -2.765625 7.117188 -2.578125 7.890625 -2.578125 C 8.679688 -2.578125 9.367188 -2.765625 9.953125 -3.140625 C 10.535156 -3.523438 10.988281 -4.039062 11.3125 -4.6875 C 11.644531 -5.34375 11.8125 -6.078125 11.8125 -6.890625 C 11.8125 -7.710938 11.644531 -8.445312 11.3125 -9.09375 C 10.988281 -9.75 10.535156 -10.265625 9.953125 -10.640625 C 9.367188 -11.023438 8.679688 -11.21875 7.890625 -11.21875 Z M 7.890625 -11.21875 "/></g></g></g><g fill="currentColor" fill-opacity="1"><g transform="translate(182.036745, 53.103085)"><g><path d="M 8.171875 0.25 C 6.710938 0.25 5.445312 -0.0507812 4.375 -0.65625 C 3.300781 -1.269531 2.472656 -2.097656 1.890625 -3.140625 C 1.316406 -4.191406 1.03125 -5.378906 1.03125 -6.703125 C 1.03125 -8.242188 1.34375 -9.5625 1.96875 -10.65625 C 2.59375 -11.75 3.410156 -12.585938 4.421875 -13.171875 C 5.441406 -13.753906 6.519531 -14.046875 7.65625 -14.046875 C 8.53125 -14.046875 9.359375 -13.863281 10.140625 -13.5 C 10.921875 -13.144531 11.613281 -12.648438 12.21875 -12.015625 C 12.820312 -11.390625 13.296875 -10.664062 13.640625 -9.84375 C 13.992188 -9.019531 14.171875 -8.144531 14.171875 -7.21875 C 14.160156 -6.800781 14 -6.460938 13.6875 -6.203125 C 13.375 -5.953125 13.015625 -5.828125 12.609375 -5.828125 L 2.765625 -5.828125 L 1.984375 -8.40625 L 11.453125 -8.40625 L 10.875 -7.890625 L 10.875 -8.578125 C 10.84375 -9.078125 10.664062 -9.523438 10.34375 -9.921875 C 10.03125 -10.316406 9.632812 -10.628906 9.15625 -10.859375 C 8.6875 -11.097656 8.1875 -11.21875 7.65625 -11.21875 C 7.144531 -11.21875 6.664062 -11.144531 6.21875 -11 C 5.769531 -10.863281 5.378906 -10.632812 5.046875 -10.3125 C 4.722656 -9.988281 4.46875 -9.550781 4.28125 -9 C 4.09375 -8.445312 4 -7.75 4 -6.90625 C 4 -5.976562 4.191406 -5.191406 4.578125 -4.546875 C 4.960938 -3.898438 5.457031 -3.410156 6.0625 -3.078125 C 6.675781 -2.742188 7.328125 -2.578125 8.015625 -2.578125 C 8.648438 -2.578125 9.15625 -2.628906 9.53125 -2.734375 C 9.914062 -2.835938 10.222656 -2.960938 10.453125 -3.109375 C 10.679688 -3.253906 10.890625 -3.378906 11.078125 -3.484375 C 11.390625 -3.640625 11.6875 -3.71875 11.96875 -3.71875 C 12.34375 -3.71875 12.65625 -3.585938 12.90625 -3.328125 C 13.15625 -3.066406 13.28125 -2.765625 13.28125 -2.421875 C 13.28125 -1.960938 13.039062 -1.539062 12.5625 -1.15625 C 12.113281 -0.78125 11.484375 -0.453125 10.671875 -0.171875 C 9.867188 0.109375 9.035156 0.25 8.171875 0.25 Z M 8.171875 0.25 "/></g></g></g><g fill="currentColor" fill-opacity="1"><g transform="translate(197.248476, 53.103085)"><g><path d="M 5.03125 -1.578125 C 5.03125 -1.128906 4.878906 -0.753906 4.578125 -0.453125 C 4.273438 -0.148438 3.898438 0 3.453125 0 C 3.023438 0 2.664062 -0.148438 2.375 -0.453125 C 2.082031 -0.753906 1.9375 -1.128906 1.9375 -1.578125 L 1.9375 -17.5 C 1.9375 -17.945312 2.082031 -18.320312 2.375 -18.625 C 2.675781 -18.925781 3.050781 -19.078125 3.5 -19.078125 C 3.945312 -19.078125 4.3125 -18.925781 4.59375 -18.625 C 4.882812 -18.320312 5.03125 -17.945312 5.03125 -17.5 Z M 5.03125 -1.578125 "/></g></g></g><g fill="currentColor" fill-opacity="1"><g transform="translate(204.209775, 53.103085)"><g><path d="M 12.96875 -14.046875 C 13.414062 -14.046875 13.785156 -13.898438 14.078125 -13.609375 C 14.367188 -13.316406 14.515625 -12.941406 14.515625 -12.484375 L 14.515625 -1.578125 C 14.515625 -1.128906 14.367188 -0.753906 14.078125 -0.453125 C 13.785156 -0.148438 13.414062 0 12.96875 0 C 12.519531 0 12.148438 -0.148438 11.859375 -0.453125 C 11.566406 -0.753906 11.421875 -1.128906 11.421875 -1.578125 L 11.421875 -2.828125 L 11.984375 -2.609375 C 11.984375 -2.378906 11.863281 -2.101562 11.625 -1.78125 C 11.382812 -1.46875 11.054688 -1.15625 10.640625 -0.84375 C 10.234375 -0.539062 9.75 -0.28125 9.1875 -0.0625 C 8.632812 0.144531 8.03125 0.25 7.375 0.25 C 6.1875 0.25 5.109375 -0.0507812 4.140625 -0.65625 C 3.179688 -1.269531 2.421875 -2.113281 1.859375 -3.1875 C 1.304688 -4.257812 1.03125 -5.492188 1.03125 -6.890625 C 1.03125 -8.296875 1.304688 -9.535156 1.859375 -10.609375 C 2.421875 -11.679688 3.175781 -12.519531 4.125 -13.125 C 5.070312 -13.738281 6.117188 -14.046875 7.265625 -14.046875 C 8.003906 -14.046875 8.679688 -13.929688 9.296875 -13.703125 C 9.921875 -13.484375 10.457031 -13.203125 10.90625 -12.859375 C 11.363281 -12.515625 11.71875 -12.164062 11.96875 -11.8125 C 12.21875 -11.46875 12.34375 -11.175781 12.34375 -10.9375 L 11.421875 -10.59375 L 11.421875 -12.484375 C 11.421875 -12.921875 11.566406 -13.289062 11.859375 -13.59375 C 12.148438 -13.894531 12.519531 -14.046875 12.96875 -14.046875 Z M 7.765625 -2.578125 C 8.515625 -2.578125 9.171875 -2.765625 9.734375 -3.140625 C 10.304688 -3.523438 10.75 -4.039062 11.0625 -4.6875 C 11.382812 -5.34375 11.546875 -6.078125 11.546875 -6.890625 C 11.546875 -7.710938 11.382812 -8.445312 11.0625 -9.09375 C 10.75 -9.75 10.304688 -10.265625 9.734375 -10.640625 C 9.171875 -11.023438 8.515625 -11.21875 7.765625 -11.21875 C 7.023438 -11.21875 6.367188 -11.023438 5.796875 -10.640625 C 5.234375 -10.265625 4.789062 -9.75 4.46875 -9.09375 C 4.15625 -8.445312 4 -7.710938 4 -6.890625 C 4 -6.078125 4.15625 -5.34375 4.46875 -4.6875 C 4.789062 -4.039062 5.234375 -3.523438 5.796875 -3.140625 C 6.367188 -2.765625 7.023438 -2.578125 7.765625 -2.578125 Z M 7.765625 -2.578125 "/></g></g></g><g fill="currentColor" fill-opacity="1"><g transform="translate(156.254707, 88.812762)"><g><path d="M 9.390625 -18.046875 C 10.273438 -18.046875 11.109375 -17.785156 11.890625 -17.265625 C 12.679688 -16.753906 13.316406 -16.0625 13.796875 -15.1875 C 14.273438 -14.3125 14.515625 -13.332031 14.515625 -12.25 C 14.515625 -11.175781 14.273438 -10.203125 13.796875 -9.328125 C 13.316406 -8.453125 12.679688 -7.75 11.890625 -7.21875 C 11.109375 -6.695312 10.273438 -6.4375 9.390625 -6.4375 L 4.640625 -6.4375 L 4.890625 -6.90625 L 4.890625 -1.578125 C 4.890625 -1.128906 4.753906 -0.753906 4.484375 -0.453125 C 4.210938 -0.148438 3.851562 0 3.40625 0 C 2.976562 0 2.625 -0.148438 2.34375 -0.453125 C 2.070312 -0.753906 1.9375 -1.128906 1.9375 -1.578125 L 1.9375 -16.46875 C 1.9375 -16.914062 2.082031 -17.289062 2.375 -17.59375 C 2.675781 -17.894531 3.050781 -18.046875 3.5 -18.046875 Z M 9.390625 -9.390625 C 9.710938 -9.390625 10.023438 -9.523438 10.328125 -9.796875 C 10.640625 -10.066406 10.898438 -10.421875 11.109375 -10.859375 C 11.316406 -11.304688 11.421875 -11.769531 11.421875 -12.25 C 11.421875 -12.75 11.316406 -13.210938 11.109375 -13.640625 C 10.898438 -14.066406 10.640625 -14.410156 10.328125 -14.671875 C 10.023438 -14.941406 9.710938 -15.078125 9.390625 -15.078125 L 4.59375 -15.078125 L 4.890625 -15.546875 L 4.890625 -8.96875 L 4.609375 -9.390625 Z M 9.390625 -9.390625 "/></g></g></g><g fill="currentColor" fill-opacity="1"><g transform="translate(171.672689, 88.812762)"><g><path d="M 12.96875 -14.046875 C 13.414062 -14.046875 13.785156 -13.898438 14.078125 -13.609375 C 14.367188 -13.316406 14.515625 -12.941406 14.515625 -12.484375 L 14.515625 -1.578125 C 14.515625 -1.128906 14.367188 -0.753906 14.078125 -0.453125 C 13.785156 -0.148438 13.414062 0 12.96875 0 C 12.519531 0 12.148438 -0.148438 11.859375 -0.453125 C 11.566406 -0.753906 11.421875 -1.128906 11.421875 -1.578125 L 11.421875 -2.828125 L 11.984375 -2.609375 C 11.984375 -2.378906 11.863281 -2.101562 11.625 -1.78125 C 11.382812 -1.46875 11.054688 -1.15625 10.640625 -0.84375 C 10.234375 -0.539062 9.75 -0.28125 9.1875 -0.0625 C 8.632812 0.144531 8.03125 0.25 7.375 0.25 C 6.1875 0.25 5.109375 -0.0507812 4.140625 -0.65625 C 3.179688 -1.269531 2.421875 -2.113281 1.859375 -3.1875 C 1.304688 -4.257812 1.03125 -5.492188 1.03125 -6.890625 C 1.03125 -8.296875 1.304688 -9.535156 1.859375 -10.609375 C 2.421875 -11.679688 3.175781 -12.519531 4.125 -13.125 C 5.070312 -13.738281 6.117188 -14.046875 7.265625 -14.046875 C 8.003906 -14.046875 8.679688 -13.929688 9.296875 -13.703125 C 9.921875 -13.484375 10.457031 -13.203125 10.90625 -12.859375 C 11.363281 -12.515625 11.71875 -12.164062 11.96875 -11.8125 C 12.21875 -11.46875 12.34375 -11.175781 12.34375 -10.9375 L 11.421875 -10.59375 L 11.421875 -12.484375 C 11.421875 -12.921875 11.566406 -13.289062 11.859375 -13.59375 C 12.148438 -13.894531 12.519531 -14.046875 12.96875 -14.046875 Z M 7.765625 -2.578125 C 8.515625 -2.578125 9.171875 -2.765625 9.734375 -3.140625 C 10.304688 -3.523438 10.75 -4.039062 11.0625 -4.6875 C 11.382812 -5.34375 11.546875 -6.078125 11.546875 -6.890625 C 11.546875 -7.710938 11.382812 -8.445312 11.0625 -9.09375 C 10.75 -9.75 10.304688 -10.265625 9.734375 -10.640625 C 9.171875 -11.023438 8.515625 -11.21875 7.765625 -11.21875 C 7.023438 -11.21875 6.367188 -11.023438 5.796875 -10.640625 C 5.234375 -10.265625 4.789062 -9.75 4.46875 -9.09375 C 4.15625 -8.445312 4 -7.710938 4 -6.890625 C 4 -6.078125 4.15625 -5.34375 4.46875 -4.6875 C 4.789062 -4.039062 5.234375 -3.523438 5.796875 -3.140625 C 6.367188 -2.765625 7.023438 -2.578125 7.765625 -2.578125 Z M 7.765625 -2.578125 "/></g></g></g><g fill="currentColor" fill-opacity="1"><g transform="translate(187.864159, 88.812762)"><g><path d="M 1.828125 -13.53125 L 7.9375 -13.53125 C 8.351562 -13.53125 8.695312 -13.390625 8.96875 -13.109375 C 9.25 -12.835938 9.390625 -12.5 9.390625 -12.09375 C 9.390625 -11.695312 9.25 -11.363281 8.96875 -11.09375 C 8.695312 -10.832031 8.351562 -10.703125 7.9375 -10.703125 L 1.828125 -10.703125 C 1.421875 -10.703125 1.078125 -10.835938 0.796875 -11.109375 C 0.523438 -11.390625 0.390625 -11.734375 0.390625 -12.140625 C 0.390625 -12.535156 0.523438 -12.863281 0.796875 -13.125 C 1.078125 -13.394531 1.421875 -13.53125 1.828125 -13.53125 Z M 4.59375 -16.75 C 5.039062 -16.75 5.40625 -16.597656 5.6875 -16.296875 C 5.96875 -16.003906 6.109375 -15.632812 6.109375 -15.1875 L 6.109375 -3.71875 C 6.109375 -3.46875 6.15625 -3.265625 6.25 -3.109375 C 6.34375 -2.960938 6.472656 -2.851562 6.640625 -2.78125 C 6.804688 -2.71875 6.984375 -2.6875 7.171875 -2.6875 C 7.367188 -2.6875 7.550781 -2.722656 7.71875 -2.796875 C 7.894531 -2.867188 8.097656 -2.90625 8.328125 -2.90625 C 8.566406 -2.90625 8.785156 -2.796875 8.984375 -2.578125 C 9.179688 -2.359375 9.28125 -2.050781 9.28125 -1.65625 C 9.28125 -1.164062 9.015625 -0.765625 8.484375 -0.453125 C 7.960938 -0.148438 7.40625 0 6.8125 0 C 6.445312 0 6.046875 -0.03125 5.609375 -0.09375 C 5.171875 -0.15625 4.757812 -0.300781 4.375 -0.53125 C 3.988281 -0.757812 3.664062 -1.113281 3.40625 -1.59375 C 3.144531 -2.070312 3.015625 -2.734375 3.015625 -3.578125 L 3.015625 -15.1875 C 3.015625 -15.632812 3.164062 -16.003906 3.46875 -16.296875 C 3.769531 -16.597656 4.144531 -16.75 4.59375 -16.75 Z M 4.59375 -16.75 "/></g></g></g><g fill="currentColor" fill-opacity="1"><g transform="translate(224.890069, 86.580908)"><g><path d="M 7.296875 -5.828125 C 6.367188 -5.828125 5.5 -6.28125 4.6875 -7.1875 C 3.875 -8.09375 3.46875 -9.03125 3.46875 -10 C 3.46875 -10.507812 3.59375 -10.972656 3.84375 -11.390625 C 4.101562 -11.804688 4.488281 -12.175781 5 -12.5 L 29.09375 -26.453125 L 29.578125 -19.515625 L 5.0625 -34.15625 C 4.507812 -34.488281 4.117188 -34.894531 3.890625 -35.375 C 3.660156 -35.863281 3.546875 -36.363281 3.546875 -36.875 C 3.546875 -37.976562 3.9375 -38.957031 4.71875 -39.8125 C 5.507812 -40.675781 6.273438 -41.109375 7.015625 -41.109375 C 7.523438 -41.109375 8.066406 -40.957031 8.640625 -40.65625 C 9.222656 -40.351562 9.835938 -40.019531 10.484375 -39.65625 L 33.046875 -26.390625 C 33.609375 -26.066406 34.023438 -25.613281 34.296875 -25.03125 C 34.578125 -24.457031 34.71875 -23.84375 34.71875 -23.1875 C 34.71875 -22.539062 34.578125 -21.925781 34.296875 -21.34375 C 34.023438 -20.769531 33.609375 -20.320312 33.046875 -20 L 10.484375 -7.015625 C 9.878906 -6.691406 9.320312 -6.410156 8.8125 -6.171875 C 8.3125 -5.941406 7.804688 -5.828125 7.296875 -5.828125 Z M 7.296875 -5.828125 "/></g></g></g><path stroke-linecap="butt" transform="matrix(0, 0.743952, -0.743952, 0, 117.68487, 29.970838)" fill="none" stroke-linejoin="miter" d="M 0.00244371 3.498667 L 84.191808 3.498667 " stroke="currentColor" stroke-width="7" stroke-opacity="1" stroke-miterlimit="4"/></svg>